<svg width="66" height="40" viewBox="0 0 66 40" fill="none" xmlns="http://www.w3.org/2000/svg">
<path d="M32.2767 39.8996C32.0624 39.8996 31.8481 39.8385 31.6542 39.7367L29.695 38.5764C29.399 38.4135 29.5419 38.3524 29.644 38.3219C30.0317 38.1896 30.1134 38.159 30.5317 37.9147C30.5726 37.8944 30.6338 37.9045 30.6746 37.9249L32.1849 38.8206C32.2359 38.8512 32.3175 38.8512 32.3685 38.8206L38.2667 35.4209C38.3177 35.3904 38.3586 35.3293 38.3586 35.2581V28.4688C38.3586 28.3975 38.3279 28.3364 38.2667 28.3059L32.3685 24.9163C32.3175 24.8858 32.2461 24.8858 32.1849 24.9163L26.2867 28.3059C26.2255 28.3364 26.1948 28.4077 26.1948 28.4688V35.2581C26.1948 35.3191 26.2357 35.3802 26.2867 35.4107L27.899 36.337C28.7766 36.7747 29.3174 36.2556 29.3174 35.7466V29.0388C29.3174 28.9472 29.3888 28.8657 29.4909 28.8657H30.2358C30.3277 28.8657 30.4093 28.937 30.4093 29.0388V35.7466C30.4093 36.9172 29.7766 37.5788 28.6643 37.5788C28.3276 37.5788 28.0521 37.5788 27.3071 37.2124L25.7561 36.3268C25.3785 36.1029 25.1336 35.6957 25.1336 35.2581V28.4688C25.1336 28.0311 25.3683 27.6137 25.7561 27.4L31.6542 24.0002C32.0318 23.7865 32.5216 23.7865 32.889 24.0002L38.7872 27.4C39.1647 27.6239 39.4096 28.0311 39.4096 28.4688V35.2581C39.4096 35.6957 39.1749 36.1131 38.7872 36.3268L32.889 39.7266C32.7155 39.8385 32.5012 39.8996 32.2767 39.8996ZM37.0422 33.2019C37.0422 31.9296 36.185 31.5937 34.3686 31.3494C32.5318 31.1051 32.3481 30.9829 32.3481 30.5554C32.3481 30.1992 32.5012 29.7309 33.8584 29.7309C35.0727 29.7309 35.5217 29.9956 35.7054 30.8099C35.7258 30.8913 35.787 30.9422 35.8687 30.9422H36.634C36.685 30.9422 36.7258 30.9219 36.7565 30.8913C36.7871 30.8506 36.8075 30.8099 36.7973 30.759C36.6748 29.3543 35.7462 28.7029 33.8584 28.7029C32.1747 28.7029 31.1746 29.4154 31.1746 30.5961C31.1746 31.8889 32.1747 32.2349 33.787 32.3978C35.7156 32.5912 35.8687 32.866 35.8687 33.2426C35.8687 33.9043 35.338 34.1791 34.0931 34.1791C32.5318 34.1791 32.1849 33.7923 32.0726 33.0187C32.0624 32.9373 31.991 32.8762 31.8991 32.8762H31.1338C31.042 32.8762 30.9603 32.9475 30.9603 33.0492C30.9603 34.0366 31.5012 35.2173 34.0829 35.2173C35.9707 35.2173 37.0422 34.4845 37.0422 33.2019ZM42.6036 28.1023C42.6036 28.7232 42.0934 29.2322 41.4709 29.2322C40.8485 29.2322 40.3382 28.7232 40.3382 28.1023C40.3382 27.4611 40.8689 26.9725 41.4709 26.9725C42.0832 26.9623 42.6036 27.4611 42.6036 28.1023ZM42.4199 28.1023C42.4199 27.573 41.9914 27.1557 41.4607 27.1557C40.9403 27.1557 40.5117 27.573 40.5117 28.1023C40.5117 28.6316 40.9403 29.0591 41.4607 29.0591C41.9914 29.049 42.4199 28.6214 42.4199 28.1023ZM41.9607 28.7334H41.6954C41.6852 28.6723 41.6444 28.3466 41.6444 28.3364C41.624 28.2652 41.6036 28.2245 41.5117 28.2245H41.2872V28.7334H41.0423V27.4611H41.4811C41.6342 27.4611 41.9301 27.4611 41.9301 27.797C41.9301 28.0311 41.7771 28.082 41.6852 28.1125C41.8587 28.1227 41.8689 28.2346 41.8995 28.3975C41.9097 28.4993 41.9301 28.6723 41.9607 28.7334ZM41.675 27.8377C41.675 27.6646 41.5526 27.6646 41.4913 27.6646H41.2872V28.0209H41.4811C41.6444 28.0209 41.675 27.9089 41.675 27.8377ZM14.0107 13.3328C14.0107 13.058 13.8679 12.8137 13.6332 12.6814L7.37782 9.08823C7.27578 9.02716 7.15333 8.99662 7.03087 8.98645H6.96965C6.84719 8.98645 6.73494 9.02716 6.62269 9.08823L0.377565 12.6814C0.142862 12.8137 0 13.0682 0 13.3328L0.0102045 23.0027C0.0102045 23.135 0.0816357 23.2572 0.193885 23.3284C0.306134 23.3997 0.448996 23.3997 0.57145 23.3284L4.28587 21.2011C4.52058 21.0586 4.66344 20.8143 4.66344 20.5496V16.0302C4.66344 15.7656 4.8063 15.5111 5.041 15.3788L6.62269 14.4728C6.74515 14.4016 6.8676 14.3711 7.00026 14.3711C7.13292 14.3711 7.26558 14.4016 7.37782 14.4728L8.95952 15.3788C9.19422 15.5111 9.33708 15.7656 9.33708 16.0302V20.5496C9.33708 20.8143 9.47994 21.0687 9.71465 21.2011L13.4291 23.3284C13.5413 23.3997 13.6944 23.3997 13.8066 23.3284C13.9189 23.2674 13.9903 23.135 13.9903 23.0027L14.0107 13.3328ZM48.2161 2.77735V20.7328C48.2161 20.9975 48.0732 21.252 47.8385 21.3843L41.5832 24.9876C41.3485 25.1199 41.0627 25.1199 40.828 24.9876L34.5727 21.3843C34.338 21.252 34.1951 20.9975 34.1951 20.7328V13.5262C34.1951 13.2616 34.338 13.0071 34.5727 12.8748L40.828 9.27145C41.0627 9.13913 41.3485 9.13913 41.5832 9.27145L43.1445 10.1672C43.3179 10.269 43.5424 10.1367 43.5424 9.94326V0.375139C43.5424 0.0901314 43.8486 -0.0930879 44.1037 0.049416L47.8283 2.1259C48.063 2.24805 48.2161 2.50252 48.2161 2.77735ZM43.522 15.8979C43.522 15.8266 43.4812 15.7656 43.4302 15.735L41.2872 14.4932C41.226 14.4627 41.1546 14.4627 41.0934 14.4932L38.9504 15.735C38.8892 15.7656 38.8586 15.8266 38.8586 15.8979V18.3713C38.8586 18.4426 38.8994 18.5037 38.9504 18.5342L41.0934 19.7658C41.1546 19.7964 41.226 19.7964 41.277 19.7658L43.42 18.5342C43.4812 18.5037 43.5118 18.4426 43.5118 18.3713V15.8979H43.522ZM64.931 15.8266C65.1657 15.6943 65.3085 15.4398 65.3085 15.1752V13.4346C65.3085 13.17 65.1657 12.9155 64.931 12.7832L58.7165 9.17984C58.4818 9.04752 58.196 9.04752 57.9613 9.17984L51.706 12.7832C51.4713 12.9155 51.3284 13.17 51.3284 13.4346V20.6412C51.3284 20.9161 51.4713 21.1603 51.706 21.2927L57.9205 24.8247C58.145 24.9571 58.4307 24.9571 58.6654 24.8247L62.4207 22.7381C62.6758 22.5956 62.6758 22.2291 62.4207 22.0866L56.1245 18.4833C56.0021 18.4121 55.9306 18.2899 55.9306 18.1576V15.8979C55.9306 15.7656 56.0021 15.6434 56.1245 15.5722L58.0838 14.4423C58.196 14.3711 58.3491 14.3711 58.4614 14.4423L60.4206 15.5722C60.5329 15.6434 60.6145 15.7656 60.6145 15.8979V17.669C60.6145 17.954 60.9308 18.1372 61.1859 17.9947L64.931 15.8266ZM57.0429 16.1829C57.0021 16.2134 56.9715 16.2541 56.9715 16.305V17.6894C56.9715 17.7403 57.0021 17.7911 57.0429 17.8115L58.2471 18.5037C58.2879 18.5342 58.3491 18.5342 58.3899 18.5037L59.594 17.8115C59.6349 17.781 59.6655 17.7403 59.6655 17.6894V16.305C59.6655 16.2541 59.6349 16.2032 59.594 16.1829L58.3899 15.4907C58.3491 15.4602 58.2879 15.4602 58.2471 15.4907L57.0429 16.1829ZM31.1032 20.6107V13.4448C31.1032 13.1801 30.9399 12.9257 30.7052 12.7933L24.4703 9.21038C24.256 9.08823 23.9601 9.06787 23.7152 9.21038L17.4802 12.7933C17.2455 12.9257 17.0823 13.17 17.0823 13.4448V20.6107C17.0823 20.8957 17.2761 21.14 17.4904 21.2621L23.7356 24.8451C23.9805 24.9876 24.2662 24.9774 24.4907 24.8451L30.7154 21.2621C30.8991 21.1603 31.0318 20.9873 31.0828 20.7837C31.093 20.7328 31.1032 20.6718 31.1032 20.6107ZM23.5213 7.89731L23.4396 7.9482H23.5519L23.5213 7.89731ZM31.2971 21.1502L31.2563 21.0789V21.1705L31.2971 21.1502Z" fill="url(#paint0_linear_530_161)"/>
<defs>
<linearGradient id="paint0_linear_530_161" x1="32.6543" y1="0" x2="32.6543" y2="39.8996" gradientUnits="userSpaceOnUse">
<stop stop-color="#E05060"/>
<stop offset="1" stop-color="#CD4352"/>
</linearGradient>
</defs>
</svg>
