<svg width="50" height="38" viewBox="0 0 50 38" fill="none" xmlns="http://www.w3.org/2000/svg">
<path d="M23.5812 28.282C23.5344 28.3661 23.5578 28.3287 23.5812 28.282V28.282ZM43.0448 21.5021C41.4734 21.5016 39.923 21.8615 38.5135 22.5541C38.0525 21.6268 37.5759 20.8163 37.4978 20.2084C37.4041 19.4993 37.3025 19.0784 37.4119 18.2368C37.5213 17.3952 38.0134 16.2028 38.0056 16.1171C37.9978 16.0314 37.8963 15.6028 36.8884 15.595C35.8806 15.5872 35.0134 15.7898 34.9126 16.0548C34.7346 16.539 34.5962 17.0368 34.4986 17.5432C34.3189 18.455 32.4837 21.7125 31.4446 23.4113C31.1009 22.7489 30.8118 22.1645 30.7493 21.6969C30.6555 20.9877 30.554 20.5669 30.6634 19.7253C30.7727 18.8836 31.2649 17.6913 31.2571 17.6056C31.2493 17.5198 31.1477 17.0912 30.1407 17.0834C29.1337 17.0756 28.2657 17.2783 28.1641 17.5432C28.0625 17.8082 27.9532 18.4316 27.75 19.0317C27.5469 19.6317 25.1024 25.0557 24.4625 26.4662C24.1344 27.1831 23.8531 27.7598 23.65 28.1495C23.6187 28.2118 23.5953 28.2508 23.5797 28.282C23.6031 28.243 23.6187 28.204 23.6187 28.2196C23.4469 28.5547 23.3453 28.7417 23.3453 28.7417V28.7495C23.2125 28.9989 23.0641 29.2249 22.9937 29.2249C22.9469 29.2249 22.8453 28.5703 23.0172 27.6741C23.3844 25.7882 24.2516 22.858 24.2438 22.7567C24.2359 22.7022 24.4078 22.1956 23.6734 21.9229C22.9625 21.6657 22.7047 22.0943 22.6422 22.0943C22.5797 22.0943 22.5328 22.2502 22.5328 22.2502C22.5328 22.2502 23.3219 18.946 21.0179 18.946C19.5804 18.946 17.5804 20.5201 16.5976 21.9463C15.9804 22.2814 14.6444 23.0061 13.2382 23.7776C12.6991 24.0737 12.1444 24.3777 11.6209 24.666C11.5819 24.627 11.5506 24.5881 11.5116 24.5491C8.71545 21.5722 3.55289 19.4681 3.77164 15.4703C3.84977 14.013 4.35758 10.1867 13.6991 5.54204C21.3554 1.73906 27.4766 2.78332 28.5305 5.10563C30.0462 8.41765 25.2578 14.5819 17.307 15.4703C14.2764 15.8054 12.6835 14.6364 12.285 14.2C11.871 13.7403 11.8085 13.7169 11.6522 13.8026C11.3944 13.9429 11.5584 14.3481 11.6522 14.5897C11.8866 15.2053 12.8632 16.2964 14.5265 16.8419C15.9874 17.3172 19.5406 17.5822 23.8367 15.9223C28.6633 14.0676 32.4204 8.90081 31.3188 4.57571C30.1969 0.180467 22.8906 -1.26123 15.9819 1.18576C11.8655 2.64305 7.41387 4.93419 4.21149 7.9189C0.407539 11.4725 -0.201062 14.5663 0.048941 15.8599C0.938795 20.45 7.28106 23.4425 9.81937 25.6557C9.69437 25.7259 9.57718 25.7882 9.4678 25.8505C8.19513 26.4818 3.35992 29.0067 2.14975 31.6719C0.782543 34.6956 2.37631 36.862 3.42242 37.1582C6.6873 38.0621 10.0303 36.4334 11.8264 33.7604C13.6225 31.0874 13.4046 27.5962 12.5764 26.0064C12.5686 25.983 12.553 25.9674 12.5452 25.9441C12.8733 25.7492 13.2093 25.5544 13.5452 25.3596C14.1929 24.9777 14.8257 24.627 15.3804 24.3231C15.0679 25.1648 14.8413 26.1779 14.7241 27.6429C14.5835 29.3574 15.2944 31.5784 16.2163 32.4512C16.6226 32.8331 17.114 32.8409 17.4187 32.8409C18.4968 32.8409 18.9812 31.9525 19.5195 30.8926C20.1835 29.599 20.7695 28.0949 20.7695 28.0949C20.7695 28.0949 20.0351 32.1629 22.0429 32.1629C22.7765 32.1629 23.5109 31.2199 23.8398 30.7367V30.7445C23.8398 30.7445 23.8555 30.7134 23.8945 30.651C23.9727 30.5341 24.0117 30.464 24.0117 30.464V30.4406C24.3086 29.9341 24.957 28.7729 25.9328 26.8558C27.1985 24.3777 28.4086 21.2839 28.4086 21.2839C28.5256 21.964 28.6874 22.6356 28.893 23.2944C29.1118 24.0348 29.5727 24.8453 29.9399 25.6323C29.643 26.0376 29.4633 26.2714 29.4633 26.2714C29.4639 26.2773 29.4667 26.2829 29.4712 26.287C29.2368 26.5987 28.9712 26.9338 28.6977 27.2611C27.6985 28.4456 26.5102 29.8016 26.3539 30.1912C26.1664 30.651 26.2133 30.9939 26.5727 31.2589C26.8383 31.4615 27.3071 31.4927 27.7985 31.4537C28.6969 31.3914 29.3298 31.1732 29.6344 31.0329C30.1961 30.832 30.727 30.5539 31.2118 30.2068C32.1884 29.4899 32.7821 28.4612 32.7274 27.1052C32.6962 26.3571 32.454 25.609 32.1571 24.9076C32.2431 24.7829 32.3368 24.6504 32.4228 24.5179C33.9689 22.2658 35.1642 19.7938 35.1642 19.7938C35.2811 20.4739 35.4429 21.1456 35.6486 21.8044C35.8361 22.4357 36.2025 23.1292 36.5384 23.8072C35.0861 24.984 34.1876 26.3477 33.8751 27.2439C33.297 28.9038 33.7501 29.652 34.6017 29.8234C34.9845 29.9013 35.5314 29.7221 35.9376 29.5507C36.541 29.3502 37.1099 29.0584 37.6244 28.6856C38.601 27.9687 39.5455 26.9634 39.483 25.5996C39.4596 24.984 39.2877 24.3683 39.0611 23.7761C40.2877 23.2617 41.8807 22.9812 43.912 23.215C48.262 23.7215 49.1136 26.4335 48.9495 27.5634C48.7854 28.6934 47.8714 29.3247 47.5667 29.5117C47.262 29.6987 47.1682 29.7689 47.1917 29.9091C47.2307 30.1117 47.3714 30.104 47.6292 30.0572C47.9886 29.9949 49.9097 29.1376 49.9956 27.0413C50.1206 24.3917 47.5667 21.4771 43.0424 21.5005L43.0448 21.5021ZM9.51468 32.7785C8.07794 34.3449 6.06229 34.9372 5.19588 34.4384C4.26618 33.8991 4.63337 31.594 6.40605 29.9247C7.48418 28.9116 8.87404 27.9765 9.79593 27.3998C10.0069 27.2751 10.3116 27.0881 10.6866 26.8621C10.7491 26.8231 10.7803 26.8075 10.7803 26.8075C10.8506 26.7608 10.9288 26.7218 11.0069 26.675C11.6545 29.0441 11.0303 31.1326 9.51468 32.7769V32.7785ZM20.0117 25.6557C19.5117 26.8792 18.4577 29.9964 17.8171 29.8328C17.2702 29.6925 16.9343 27.3156 17.7077 24.9777C18.0984 23.801 18.9265 22.3983 19.4187 21.8527C20.207 20.9721 21.0742 20.6916 21.2773 21.0423C21.5508 21.5021 20.3242 24.892 20.0117 25.6557ZM28.6836 29.786C28.4727 29.8951 28.2774 29.9652 28.1836 29.9107C28.1133 29.8717 28.2696 29.7237 28.2696 29.7237C28.2696 29.7237 29.3555 28.5625 29.7852 28.0326C30.0352 27.7209 30.3243 27.3546 30.636 26.9494C30.636 26.9883 30.6438 27.0273 30.6438 27.074C30.6337 28.469 29.2907 29.4119 28.6813 29.786H28.6836ZM35.3697 28.2664C35.2134 28.1573 35.2369 27.791 35.7603 26.6532C35.9634 26.209 36.4314 25.4609 37.2447 24.7439C37.3368 25.0153 37.3868 25.2991 37.3931 25.5856C37.3853 27.339 36.1275 27.9936 35.3704 28.2664H35.3697Z" fill="url(#paint0_linear_530_153)"/>
<defs>
<linearGradient id="paint0_linear_530_153" x1="25" y1="0" x2="25" y2="37.4094" gradientUnits="userSpaceOnUse">
<stop stop-color="#E05060"/>
<stop offset="1" stop-color="#CD4352"/>
</linearGradient>
</defs>
</svg>
