<svg width="46" height="46" viewBox="0 0 46 46" fill="none" xmlns="http://www.w3.org/2000/svg">
<path d="M4.98024 14.931L14.3935 40.6485C7.80887 37.4662 3.27379 30.7315 3.27379 22.9423C3.27379 20.0837 3.88589 17.3825 4.98024 14.931ZM36.3177 21.9524C36.3177 19.5194 35.446 17.8358 34.6948 16.5221C33.6931 14.9032 32.7565 13.5248 32.7565 11.9059C32.7565 10.0928 34.129 8.40908 36.0673 8.40908C36.1508 8.40908 36.2343 8.41833 36.327 8.42759C32.8121 5.21752 28.1379 3.25632 23 3.25632C16.1093 3.25632 10.044 6.78092 6.51048 12.128C6.97419 12.1465 7.41008 12.1557 7.78105 12.1557C9.83992 12.1557 13.0395 11.9059 13.0395 11.9059C14.106 11.8412 14.2266 13.4046 13.1694 13.5248C13.1694 13.5248 12.1028 13.6451 10.9157 13.7099L18.1032 35.024L22.425 22.1097L19.3552 13.7099C18.2887 13.6451 17.2871 13.5248 17.2871 13.5248C16.2206 13.4601 16.3504 11.8412 17.4077 11.9059C17.4077 11.9059 20.6629 12.1557 22.6012 12.1557C24.6601 12.1557 27.8597 11.9059 27.8597 11.9059C28.9262 11.8412 29.0468 13.4046 27.9895 13.5248C27.9895 13.5248 26.923 13.6451 25.7359 13.7099L32.8677 34.8667L34.8339 28.3078C35.6686 25.588 36.3177 23.6361 36.3177 21.9524ZM23.3431 24.6629L17.4262 41.8234C19.1976 42.3414 21.0617 42.6282 23 42.6282C25.3 42.6282 27.498 42.2304 29.5476 41.5089C29.4919 41.4256 29.4456 41.3331 29.4085 41.2406L23.3431 24.6629ZM40.3149 13.4971C40.3984 14.1262 40.4448 14.7922 40.4448 15.523C40.4448 17.5212 40.0738 19.76 38.9423 22.5722L32.9141 39.9547C38.7847 36.5411 42.7262 30.2042 42.7262 22.9423C42.7262 19.5194 41.8544 16.3001 40.3149 13.4971ZM46 22.9423C46 35.5975 35.6778 45.8845 23 45.8845C10.3129 45.8845 0 35.5883 0 22.9423C0 10.287 10.3129 0 23 0C35.6778 0 46 10.287 46 22.9423ZM44.9427 22.9423C44.9427 10.8698 35.0935 1.0546 23 1.0546C10.8972 1.0546 1.05726 10.8698 1.05726 22.9423C1.05726 35.0147 10.9065 44.8299 23 44.8299C35.1028 44.8299 44.9427 35.0147 44.9427 22.9423Z" fill="#DA4C5C"/>
</svg>
