<svg width="46" height="40" viewBox="0 0 46 40" fill="none" xmlns="http://www.w3.org/2000/svg">
<path d="M37.3373 12.9299C36.8552 12.7696 36.3731 12.6182 35.8909 12.4758C35.9713 12.1462 36.0427 11.8167 36.1141 11.4872C37.2123 6.17943 36.4891 1.91361 34.0518 0.50651C31.7037 -0.838248 27.8735 0.559945 23.9987 3.92629C23.6148 4.2558 23.2398 4.60313 22.8827 4.95045C22.6416 4.7189 22.3917 4.48735 22.1417 4.26471C18.0794 0.666813 14.0082 -0.847154 11.5708 0.56885C9.23165 1.92251 8.53526 5.93898 9.51735 10.9618C9.61556 11.4605 9.7227 11.9503 9.84769 12.449C9.27629 12.6093 8.71382 12.7875 8.18706 12.9745C3.41946 14.622 0 17.2225 0 19.912C0 22.6906 3.64266 25.4781 8.59776 27.1701C8.99952 27.3037 9.40128 27.4373 9.81198 27.5531C9.67805 28.0874 9.56199 28.6129 9.45485 29.1561C8.5174 34.0988 9.24951 38.0173 11.5887 39.362C13.9993 40.7513 18.0526 39.3264 21.9988 35.8799C22.3113 35.6038 22.6238 35.3188 22.9363 35.016C23.3291 35.399 23.7398 35.7641 24.1505 36.1203C27.9717 39.3976 31.7483 40.7246 34.0785 39.3798C36.4891 37.9905 37.2748 33.7782 36.257 28.6485C36.1766 28.2566 36.0874 27.8559 35.9892 27.4462C36.2748 27.3661 36.5516 27.277 36.8284 27.1879C41.9799 25.487 45.7118 22.7351 45.7118 19.912C45.7118 17.2136 42.1942 14.5953 37.3373 12.9299ZM25.2576 5.36902C28.5788 2.48357 31.6769 1.35255 33.0875 2.16297C34.5964 3.02682 35.1767 6.51785 34.2303 11.1043C34.1678 11.4071 34.1053 11.701 34.025 11.9948C32.0429 11.5496 30.0341 11.229 28.0164 11.0508C26.8557 9.39439 25.5879 7.80917 24.213 6.32192C24.5612 5.99241 24.9005 5.68071 25.2576 5.36902ZM14.9278 24.5341C15.3831 25.3088 15.8474 26.0836 16.3384 26.8406C14.9456 26.6892 13.5618 26.4666 12.1958 26.1727C12.5886 24.8903 13.0797 23.5633 13.6511 22.2097C14.0617 22.9934 14.4814 23.7682 14.9278 24.5341ZM12.2226 13.8205C13.5082 13.5355 14.8742 13.304 16.2938 13.1259C15.8206 13.865 15.3563 14.622 14.9188 15.3879C14.4814 16.1449 14.0528 16.9197 13.6511 17.7034C13.0886 16.3764 12.6154 15.0762 12.2226 13.8205ZM14.6689 19.9565C15.2581 18.7275 15.9009 17.5253 16.5795 16.3408C17.258 15.1564 17.9901 14.0075 18.7579 12.8765C20.0971 12.7785 21.4631 12.7251 22.8559 12.7251C24.2487 12.7251 25.6236 12.7785 26.9539 12.8765C27.7128 13.9986 28.436 15.1475 29.1234 16.323C29.8109 17.4986 30.4537 18.7008 31.0608 19.9209C30.4627 21.1499 29.8198 22.3611 29.1324 23.5544C28.4538 24.7389 27.7307 25.8877 26.9718 27.0276C25.6415 27.1256 24.2576 27.1701 22.8559 27.1701C21.4542 27.1701 20.0971 27.1256 18.7847 27.0455C18.008 25.9144 17.2759 24.7567 16.5884 23.5722C15.9009 22.3878 15.267 21.1855 14.6689 19.9565ZM30.793 24.5162C31.2483 23.7325 31.6769 22.9399 32.0965 22.1384C32.6679 23.4297 33.1679 24.7389 33.6054 26.0836C32.2215 26.3953 30.8198 26.6358 29.4091 26.7961C29.8913 26.048 30.3466 25.2821 30.793 24.5162ZM32.0786 17.7034C31.659 16.9197 31.2305 16.136 30.7841 15.3701C30.3466 14.6131 29.8913 13.865 29.4181 13.1259C30.8555 13.304 32.2304 13.5444 33.5161 13.8383C33.1054 15.1564 32.6233 16.4388 32.0786 17.7034ZM22.8738 7.68449C23.8112 8.69974 24.6951 9.76842 25.5165 10.8727C23.7487 10.7926 21.972 10.7926 20.2043 10.8727C21.0792 9.7239 21.981 8.65521 22.8738 7.68449ZM12.5172 2.22531C14.0171 1.35255 17.3473 2.59935 20.856 5.69853C21.0792 5.89445 21.3024 6.10819 21.5346 6.32192C20.1507 7.80917 18.874 9.39439 17.7044 11.0508C15.6867 11.229 13.6868 11.5407 11.7047 11.977C11.5887 11.5228 11.4905 11.0597 11.3922 10.5967C10.553 6.2863 11.1065 3.03573 12.5172 2.22531ZM10.3298 25.7007C9.95483 25.5938 9.58877 25.4781 9.22272 25.3534C7.32104 24.7567 5.16044 23.8127 3.59802 22.5748C2.69628 21.9514 2.08917 20.9896 1.91954 19.912C1.91954 18.2823 4.74082 16.1983 8.81203 14.7823C9.32093 14.6042 9.83876 14.4439 10.3566 14.2925C10.9637 16.225 11.6958 18.122 12.544 19.9565C11.6869 21.8178 10.9458 23.7414 10.3298 25.7007ZM20.74 34.4283C19.2668 35.773 17.5616 36.8417 15.7045 37.572C14.7135 38.044 13.5707 38.0885 12.5529 37.6878C11.1333 36.8684 10.5441 33.7247 11.3476 29.4945C11.4458 28.9958 11.553 28.4971 11.6779 28.0073C13.6778 28.4347 15.6956 28.7286 17.7401 28.88C18.9186 30.5454 20.2132 32.1395 21.5971 33.6357C21.3114 33.9117 21.0257 34.1789 20.74 34.4283ZM22.9273 32.2642C22.0167 31.2846 21.106 30.1981 20.2221 29.0314C21.0792 29.067 21.9631 29.0849 22.8559 29.0849C23.7755 29.0849 24.6773 29.067 25.5701 29.0225C24.7487 30.1535 23.8648 31.2311 22.9273 32.2642ZM34.5964 34.9359C34.516 36.0224 33.9803 37.0376 33.1232 37.7234C31.7037 38.5427 28.677 37.474 25.4094 34.6776C25.0344 34.357 24.6594 34.0097 24.2755 33.6535C25.6415 32.1484 26.9003 30.5543 28.0431 28.88C30.0877 28.7108 32.1233 28.3991 34.1321 27.9449C34.2214 28.3101 34.3017 28.6752 34.3732 29.0314C34.8106 30.9551 34.8821 32.9588 34.5964 34.9359ZM36.2213 25.3623C35.9713 25.4424 35.7213 25.5226 35.4624 25.5938C34.8374 23.6524 34.0696 21.7555 33.1857 19.912C34.0428 18.0952 34.766 16.225 35.3731 14.3103C35.8374 14.4439 36.2838 14.5864 36.7123 14.7289C40.8728 16.1538 43.7923 18.2734 43.7923 19.8942C43.7923 21.6397 40.6764 23.8928 36.2213 25.3623ZM22.8559 24.0264C25.1147 24.0264 26.945 22.2008 26.945 19.9476C26.945 17.6945 25.1147 15.8688 22.8559 15.8688C20.5971 15.8688 18.7669 17.6945 18.7669 19.9476C18.7669 22.2008 20.5971 24.0264 22.8559 24.0264Z" fill="url(#paint0_linear_530_157)"/>
<defs>
<linearGradient id="paint0_linear_530_157" x1="22.8559" y1="0" x2="22.8559" y2="39.8996" gradientUnits="userSpaceOnUse">
<stop stop-color="#E05060"/>
<stop offset="1" stop-color="#CD4352"/>
</linearGradient>
</defs>
</svg>
