<svg width="46" height="46" viewBox="0 0 46 46" fill="none" xmlns="http://www.w3.org/2000/svg">
<path d="M41.0714 0H4.92857C2.20759 0 0 2.20205 0 4.9162V40.9683C0 43.6825 2.20759 45.8845 4.92857 45.8845H41.0714C43.7924 45.8845 46 43.6825 46 40.9683V4.9162C46 2.20205 43.7924 0 41.0714 0ZM25.033 35.7859C25.033 40.2514 22.4045 42.2896 18.5746 42.2896C15.1143 42.2896 13.1121 40.5075 12.0853 38.3464L15.6071 36.2263C16.2848 37.4246 16.9009 38.4385 18.3897 38.4385C19.8067 38.4385 20.7103 37.8855 20.7103 35.7244V21.068H25.033V35.7859ZM35.2598 42.2896C31.2451 42.2896 28.6473 40.3845 27.3844 37.8855L30.9063 35.8575C31.8304 37.3631 33.042 38.4795 35.1674 38.4795C36.954 38.4795 38.104 37.5885 38.104 36.3492C38.104 34.8743 36.9335 34.352 34.9518 33.4814L33.8737 33.0205C30.7522 31.6993 28.6884 30.0298 28.6884 26.5168C28.6884 23.2803 31.1629 20.8222 35.0134 20.8222C37.7652 20.8222 39.7366 21.7747 41.1536 24.2737L37.7857 26.4246C37.0464 25.1034 36.2455 24.581 35.0031 24.581C33.7402 24.581 32.9393 25.3799 32.9393 26.4246C32.9393 27.7151 33.7402 28.2374 35.5987 29.0466L36.6768 29.5075C40.3527 31.0745 42.4165 32.6825 42.4165 36.2877C42.4165 40.1592 39.3567 42.2896 35.2598 42.2896Z" fill="url(#paint0_linear_530_151)"/>
<defs>
<linearGradient id="paint0_linear_530_151" x1="23" y1="0" x2="23" y2="45.8845" gradientUnits="userSpaceOnUse">
<stop stop-color="#E05060"/>
<stop offset="1" stop-color="#CD4352"/>
</linearGradient>
</defs>
</svg>
