<svg width="34" height="34" viewBox="0 0 34 34" fill="none" xmlns="http://www.w3.org/2000/svg">
<rect x="0.25" y="0.25" width="33.5" height="33.5" rx="4.75" fill="#111111"/>
<path d="M26.6211 14.4531C26.7734 14.332 27 14.4453 27 14.6367V22.625C27 23.6602 26.1602 24.5 25.125 24.5H8.875C7.83984 24.5 7 23.6602 7 22.625V14.6406C7 14.4453 7.22266 14.3359 7.37891 14.457C8.25391 15.1367 9.41406 16 13.3984 18.8945C14.2227 19.4961 15.6133 20.7617 17 20.7539C18.3945 20.7656 19.8125 19.4727 20.6055 18.8945C24.5898 16 25.7461 15.1328 26.6211 14.4531ZM17 19.5C17.9062 19.5156 19.2109 18.3594 19.8672 17.8828C25.0508 14.1211 25.4453 13.793 26.6406 12.8555C26.8672 12.6797 27 12.4062 27 12.1172V11.375C27 10.3398 26.1602 9.5 25.125 9.5H8.875C7.83984 9.5 7 10.3398 7 11.375V12.1172C7 12.4062 7.13281 12.6758 7.35938 12.8555C8.55469 13.7891 8.94922 14.1211 14.1328 17.8828C14.7891 18.3594 16.0938 19.5156 17 19.5Z" fill="url(#paint0_linear_530_140)"/>
<rect x="0.25" y="0.25" width="33.5" height="33.5" rx="4.75" stroke="url(#paint1_linear_530_140)" stroke-width="0.5"/>
<defs>
<linearGradient id="paint0_linear_530_140" x1="17" y1="9.5" x2="17" y2="24.5" gradientUnits="userSpaceOnUse">
<stop stop-color="#E05060"/>
<stop offset="1" stop-color="#CD4352"/>
</linearGradient>
<linearGradient id="paint1_linear_530_140" x1="17" y1="0" x2="17" y2="34" gradientUnits="userSpaceOnUse">
<stop stop-color="#E05060"/>
<stop offset="1" stop-color="#CD4352"/>
</linearGradient>
</defs>
</svg>
