<svg width="34" height="34" viewBox="0 0 34 34" fill="none" xmlns="http://www.w3.org/2000/svg">
<rect x="0.25" y="0.25" width="33.5" height="33.5" rx="4.75" fill="#111111"/>
<path d="M13.0274 24.3248C13.0274 24.424 12.9161 24.5034 12.7758 24.5034C12.6161 24.5183 12.5048 24.4389 12.5048 24.3248C12.5048 24.2255 12.6161 24.1461 12.7565 24.1461C12.9016 24.1312 13.0274 24.2106 13.0274 24.3248ZM11.5226 24.1014C11.4887 24.2007 11.5855 24.3148 11.7306 24.3446C11.8565 24.3942 12.0016 24.3446 12.0306 24.2454C12.0597 24.1461 11.9677 24.032 11.8226 23.9873C11.6968 23.9526 11.5565 24.0022 11.5226 24.1014ZM13.6613 24.0171C13.521 24.0518 13.4242 24.1461 13.4387 24.2603C13.4532 24.3595 13.579 24.424 13.7242 24.3893C13.8645 24.3545 13.9613 24.2603 13.9468 24.161C13.9323 24.0667 13.8016 24.0022 13.6613 24.0171ZM16.8452 5C10.1339 5 5 10.2257 5 17.109C5 22.6126 8.37742 27.3222 13.2016 28.9798C13.821 29.0939 14.0387 28.7019 14.0387 28.3793C14.0387 28.0716 14.0242 26.3744 14.0242 25.3322C14.0242 25.3322 10.6371 26.0766 9.92581 23.8533C9.92581 23.8533 9.37419 22.4092 8.58065 22.037C8.58065 22.037 7.47258 21.2578 8.65806 21.2727C8.65806 21.2727 9.8629 21.372 10.5258 22.5531C11.5855 24.4687 13.3613 23.9178 14.0532 23.5903C14.1645 22.7963 14.479 22.2454 14.8274 21.9179C12.1226 21.6102 9.39355 21.2082 9.39355 16.4341C9.39355 15.0693 9.76129 14.3845 10.5355 13.511C10.4097 13.1885 9.99839 11.8585 10.6613 10.1414C11.6726 9.81878 14 11.4813 14 11.4813C14.9677 11.2034 16.0081 11.0595 17.0387 11.0595C18.0694 11.0595 19.1097 11.2034 20.0774 11.4813C20.0774 11.4813 22.4048 9.81382 23.4161 10.1414C24.079 11.8634 23.6677 13.1885 23.5419 13.511C24.3161 14.3894 24.7903 15.0743 24.7903 16.4341C24.7903 21.2231 21.9403 21.6052 19.2355 21.9179C19.6806 22.3099 20.0581 23.0543 20.0581 24.2205C20.0581 25.893 20.0435 27.9624 20.0435 28.3694C20.0435 28.6919 20.2661 29.084 20.8806 28.9699C25.7194 27.3222 29 22.6126 29 17.109C29 10.2257 23.5565 5 16.8452 5ZM9.70323 22.1164C9.64032 22.166 9.65484 22.2801 9.7371 22.3744C9.81452 22.4538 9.92581 22.4886 9.98871 22.424C10.0516 22.3744 10.0371 22.2603 9.95484 22.166C9.87742 22.0866 9.76613 22.0518 9.70323 22.1164ZM9.18064 21.7144C9.14677 21.7789 9.19516 21.8583 9.29194 21.9079C9.36935 21.9576 9.46613 21.9427 9.5 21.8732C9.53387 21.8087 9.48548 21.7293 9.38871 21.6796C9.29194 21.6499 9.21452 21.6648 9.18064 21.7144ZM10.7484 23.4811C10.671 23.5456 10.7 23.6945 10.8113 23.7888C10.9226 23.9029 11.0629 23.9178 11.1258 23.8384C11.1887 23.7739 11.1597 23.625 11.0629 23.5307C10.9565 23.4166 10.8113 23.4017 10.7484 23.4811ZM10.1968 22.7516C10.1194 22.8012 10.1194 22.9302 10.1968 23.0444C10.2742 23.1585 10.4048 23.2082 10.4677 23.1585C10.5452 23.094 10.5452 22.965 10.4677 22.8508C10.4 22.7367 10.2742 22.6871 10.1968 22.7516Z" fill="url(#paint0_linear_529_143)"/>
<rect x="0.25" y="0.25" width="33.5" height="33.5" rx="4.75" stroke="url(#paint1_linear_529_143)" stroke-width="0.5"/>
<defs>
<linearGradient id="paint0_linear_529_143" x1="17" y1="5" x2="17" y2="29" gradientUnits="userSpaceOnUse">
<stop stop-color="#E05060"/>
<stop offset="1" stop-color="#CD4352"/>
</linearGradient>
<linearGradient id="paint1_linear_529_143" x1="17" y1="0" x2="17" y2="34" gradientUnits="userSpaceOnUse">
<stop stop-color="#E05060"/>
<stop offset="1" stop-color="#CD4352"/>
</linearGradient>
</defs>
</svg>
