<svg width="54" height="55" viewBox="0 0 54 55" fill="none" xmlns="http://www.w3.org/2000/svg">
<rect y="0.110168" width="53.9931" height="54" rx="5" fill="url(#paint0_linear_544_155)"/>
<path d="M33.0665 20.5295C32.0726 14.4082 29.7282 10.1102 27 10.1102C24.2718 10.1102 21.9274 14.4082 20.9335 20.5295H33.0665ZM20.4194 27.1102C20.4194 28.6319 20.5016 30.092 20.6456 31.4973H33.3476C33.4915 30.092 33.5738 28.6319 33.5738 27.1102C33.5738 25.5884 33.4915 24.1283 33.3476 22.7231H20.6456C20.5016 24.1283 20.4194 25.5884 20.4194 27.1102ZM42.677 20.5295C40.7165 15.8751 36.7476 12.2763 31.8464 10.8231C33.519 13.14 34.6706 16.6291 35.2738 20.5295H42.677ZM22.1468 10.8231C17.2524 12.2763 13.2766 15.8751 11.323 20.5295H18.7262C19.3226 16.6291 20.4742 13.14 22.1468 10.8231ZM43.4105 22.7231H35.548C35.6919 24.1626 35.7742 25.6364 35.7742 27.1102C35.7742 28.584 35.6919 30.0577 35.548 31.4973H43.4036C43.7806 30.092 43.9931 28.6319 43.9931 27.1102C43.9931 25.5884 43.7806 24.1283 43.4105 22.7231ZM18.2258 27.1102C18.2258 25.6364 18.3081 24.1626 18.452 22.7231H10.5895C10.2194 24.1283 10 25.5884 10 27.1102C10 28.6319 10.2194 30.092 10.5895 31.4973H18.4452C18.3081 30.0577 18.2258 28.584 18.2258 27.1102ZM20.9335 33.6908C21.9274 39.8122 24.2718 44.1102 27 44.1102C29.7282 44.1102 32.0726 39.8122 33.0665 33.6908H20.9335ZM31.8532 43.3973C36.7476 41.944 40.7234 38.3452 42.6839 33.6908H35.2806C34.6774 37.5912 33.5258 41.0803 31.8532 43.3973ZM11.323 33.6908C13.2835 38.3452 17.2524 41.944 22.1536 43.3973C20.481 41.0803 19.3294 37.5912 18.7262 33.6908H11.323Z" fill="#151515"/>
<defs>
<linearGradient id="paint0_linear_544_155" x1="26.9966" y1="0.110168" x2="26.9966" y2="54.1102" gradientUnits="userSpaceOnUse">
<stop stop-color="#E05060"/>
<stop offset="1" stop-color="#CD4352"/>
</linearGradient>
</defs>
</svg>
