<svg width="65" height="55" viewBox="0 0 65 55" fill="none" xmlns="http://www.w3.org/2000/svg">
<rect y="0.110168" width="65" height="54.6154" rx="5" fill="url(#paint0_linear_543_140)"/>
<path d="M53.875 38.2352H36.827C36.775 39.5745 35.7927 40.3986 34.525 40.3986H30.25C28.9359 40.3986 27.9283 39.2175 27.9459 38.2352H11.125C10.5062 38.2352 10 38.7219 10 39.3169V40.3986C10 42.7784 12.025 44.7256 14.5 44.7256H50.5C52.975 44.7256 55 42.7784 55 40.3986V39.3169C55 38.7219 54.4938 38.2352 53.875 38.2352ZM50.5 13.3554C50.5 11.5705 48.9813 10.1102 47.125 10.1102H17.875C16.0188 10.1102 14.5 11.5705 14.5 13.3554V36.0717H50.5V13.3554ZM46 31.7448H19V14.4371H46V31.7448Z" fill="#151515"/>
<defs>
<linearGradient id="paint0_linear_543_140" x1="32.5" y1="0.110168" x2="32.5" y2="54.7256" gradientUnits="userSpaceOnUse">
<stop stop-color="#E05060"/>
<stop offset="1" stop-color="#CD4352"/>
</linearGradient>
</defs>
</svg>
