<svg width="48" height="48" viewBox="0 0 48 48" fill="none" xmlns="http://www.w3.org/2000/svg">
<rect width="48" height="48" rx="5" fill="#121211"/>
<path d="M13.136 33H9.968V16.248H17.528C18.296 16.248 18.984 16.368 19.592 16.608C20.2 16.848 20.712 17.2 21.128 17.664C21.56 18.112 21.888 18.656 22.112 19.296C22.352 19.936 22.472 20.648 22.472 21.432C22.472 22.584 22.208 23.576 21.68 24.408C21.168 25.24 20.392 25.832 19.352 26.184L22.784 33H19.256L16.136 26.544H13.136V33ZM17.216 23.88C17.824 23.88 18.304 23.72 18.656 23.4C19.008 23.064 19.184 22.592 19.184 21.984V20.88C19.184 20.272 19.008 19.808 18.656 19.488C18.304 19.168 17.824 19.008 17.216 19.008H13.136V23.88H17.216Z" fill="#F0F2F4"/>
<path d="M25.9055 16.248H33.6575C34.3455 16.248 34.9615 16.352 35.5055 16.56C36.0655 16.768 36.5375 17.056 36.9215 17.424C37.3055 17.792 37.5935 18.248 37.7855 18.792C37.9935 19.32 38.0975 19.904 38.0975 20.544C38.0975 21.184 38.0095 21.728 37.8335 22.176C37.6735 22.608 37.4495 22.968 37.1615 23.256C36.8895 23.544 36.5695 23.76 36.2015 23.904C35.8495 24.048 35.4815 24.128 35.0975 24.144V24.288C35.4655 24.288 35.8575 24.36 36.2735 24.504C36.7055 24.648 37.0975 24.88 37.4495 25.2C37.8175 25.504 38.1215 25.904 38.3615 26.4C38.6015 26.88 38.7215 27.48 38.7215 28.2C38.7215 28.872 38.6095 29.504 38.3855 30.096C38.1775 30.672 37.8815 31.176 37.4975 31.608C37.1135 32.04 36.6575 32.384 36.1295 32.64C35.6015 32.88 35.0255 33 34.4015 33H25.9055V16.248ZM29.0735 30.312H33.4895C34.0975 30.312 34.5695 30.16 34.9055 29.856C35.2415 29.536 35.4095 29.08 35.4095 28.488V27.672C35.4095 27.08 35.2415 26.624 34.9055 26.304C34.5695 25.984 34.0975 25.824 33.4895 25.824H29.0735V30.312ZM29.0735 23.232H32.9855C33.5615 23.232 34.0095 23.08 34.3295 22.776C34.6495 22.456 34.8095 22.016 34.8095 21.456V20.712C34.8095 20.152 34.6495 19.72 34.3295 19.416C34.0095 19.096 33.5615 18.936 32.9855 18.936H29.0735V23.232Z" fill="url(#paint0_linear_606_141)"/>
<defs>
<linearGradient id="paint0_linear_606_141" x1="24" y1="12" x2="24" y2="36" gradientUnits="userSpaceOnUse">
<stop stop-color="#E05060"/>
<stop offset="1" stop-color="#CD4352"/>
</linearGradient>
</defs>
</svg>
