<svg width="250" height="250" viewBox="0 0 250 250" fill="none" xmlns="http://www.w3.org/2000/svg">
<rect width="250" height="250" rx="5" fill="#121211"/>
<path d="M134.77 73H183.299C187.606 73 191.462 73.6511 194.867 74.9532C198.373 76.2553 201.328 78.0582 203.732 80.3619C206.135 82.6656 207.938 85.5202 209.14 88.9257C210.442 92.2311 211.093 95.887 211.093 99.8934C211.093 103.9 210.543 107.305 209.441 110.11C208.439 112.814 207.037 115.068 205.234 116.871C203.531 118.674 201.528 120.026 199.224 120.927C197.021 121.829 194.717 122.33 192.313 122.43V123.331C194.617 123.331 197.071 123.782 199.675 124.683C202.379 125.585 204.833 127.037 207.037 129.04C209.341 130.944 211.244 133.448 212.746 136.553C214.249 139.557 215 143.314 215 147.821C215 152.028 214.299 155.984 212.896 159.69C211.594 163.296 209.741 166.451 207.337 169.155C204.934 171.86 202.079 174.013 198.774 175.616C195.468 177.118 191.862 177.869 187.956 177.869H134.77V73ZM154.602 161.042H182.247C186.053 161.042 189.008 160.091 191.111 158.188C193.215 156.184 194.266 153.33 194.266 149.624V144.515C194.266 140.809 193.215 137.955 191.111 135.952C189.008 133.948 186.053 132.947 182.247 132.947H154.602V161.042ZM154.602 116.721H179.092C182.698 116.721 185.502 115.769 187.505 113.866C189.509 111.863 190.51 109.108 190.51 105.603V100.945C190.51 97.4395 189.509 94.7351 187.505 92.832C185.502 90.8288 182.698 89.8272 179.092 89.8272H154.602V116.721Z" fill="url(#paint0_linear_606_141)"/>
<path d="M54.832 177.869H35V73H82.3264C87.1342 73 91.4411 73.7512 95.2473 75.2537C99.0534 76.7561 102.259 78.9596 104.863 81.8643C107.567 84.6689 109.62 88.0744 111.023 92.0808C112.525 96.0873 113.276 100.544 113.276 105.452C113.276 112.664 111.624 118.874 108.318 124.082C105.113 129.291 100.255 132.997 93.7448 135.2L115.23 177.869H93.1439L73.6123 137.454H54.832V177.869ZM80.3733 120.777C84.1794 120.777 87.1843 119.776 89.3878 117.772C91.5914 115.669 92.6931 112.714 92.6931 108.908V101.997C92.6931 98.1907 91.5914 95.286 89.3878 93.2828C87.1843 91.2795 84.1794 90.2779 80.3733 90.2779H54.832V120.777H80.3733Z" fill="#F0F2F4"/>
<defs>
<linearGradient id="paint0_linear_606_141" x1="174.885" y1="73" x2="174.885" y2="177.869" gradientUnits="userSpaceOnUse">
<stop stop-color="#E05060"/>
<stop offset="1" stop-color="#CD4352"/>
</linearGradient>
</defs>
</svg>
