<svg width="131" height="19" viewBox="0 0 131 19" fill="none" xmlns="http://www.w3.org/2000/svg">
<path d="M4.136 18H0.968V1.248H8.528C9.296 1.248 9.984 1.368 10.592 1.608C11.2 1.848 11.712 2.2 12.128 2.664C12.56 3.112 12.888 3.656 13.112 4.296C13.352 4.936 13.472 5.648 13.472 6.432C13.472 7.584 13.208 8.576 12.68 9.408C12.168 10.24 11.392 10.832 10.352 11.184L13.784 18H10.256L7.136 11.544H4.136V18ZM8.216 8.88C8.824 8.88 9.304 8.72 9.656 8.4C10.008 8.064 10.184 7.592 10.184 6.984V5.88C10.184 5.272 10.008 4.808 9.656 4.488C9.304 4.168 8.824 4.008 8.216 4.008H4.136V8.88H8.216ZM25.6951 18C25.0231 18 24.4871 17.808 24.0871 17.424C23.7031 17.024 23.4631 16.496 23.3671 15.84H23.2231C23.0151 16.656 22.5911 17.272 21.9511 17.688C21.3111 18.088 20.5191 18.288 19.5751 18.288C18.2951 18.288 17.3111 17.952 16.6231 17.28C15.9351 16.608 15.5911 15.712 15.5911 14.592C15.5911 13.296 16.0551 12.336 16.9831 11.712C17.9111 11.072 19.2311 10.752 20.9431 10.752H23.0791V9.84C23.0791 9.136 22.8951 8.592 22.5271 8.208C22.1591 7.824 21.5671 7.632 20.7511 7.632C20.0311 7.632 19.4471 7.792 18.9991 8.112C18.5671 8.416 18.1991 8.784 17.8951 9.216L16.0711 7.584C16.5351 6.864 17.1511 6.288 17.9191 5.856C18.6871 5.408 19.7031 5.184 20.9671 5.184C22.6631 5.184 23.9511 5.568 24.8311 6.336C25.7111 7.104 26.1511 8.208 26.1511 9.648V15.552H27.3991V18H25.6951ZM20.6071 16.056C21.2951 16.056 21.8791 15.904 22.3591 15.6C22.8391 15.296 23.0791 14.848 23.0791 14.256V12.6H21.1111C19.5111 12.6 18.7111 13.112 18.7111 14.136V14.544C18.7111 15.056 18.8711 15.44 19.1911 15.696C19.5271 15.936 19.9991 16.056 20.6071 16.056ZM30.5094 7.896H28.6614V5.472H30.5094V3.672C30.5094 2.568 30.7974 1.72 31.3734 1.128C31.9654 0.536 32.8294 0.24 33.9654 0.24H36.1494V2.688H33.5814V5.472H36.1494V7.896H33.5814V18H30.5094V7.896ZM47.492 18C46.82 18 46.284 17.808 45.884 17.424C45.5 17.024 45.26 16.496 45.164 15.84H45.02C44.812 16.656 44.388 17.272 43.748 17.688C43.108 18.088 42.316 18.288 41.372 18.288C40.092 18.288 39.108 17.952 38.42 17.28C37.732 16.608 37.388 15.712 37.388 14.592C37.388 13.296 37.852 12.336 38.78 11.712C39.708 11.072 41.028 10.752 42.74 10.752H44.876V9.84C44.876 9.136 44.692 8.592 44.324 8.208C43.956 7.824 43.364 7.632 42.548 7.632C41.828 7.632 41.244 7.792 40.796 8.112C40.364 8.416 39.996 8.784 39.692 9.216L37.868 7.584C38.332 6.864 38.948 6.288 39.716 5.856C40.484 5.408 41.5 5.184 42.764 5.184C44.46 5.184 45.748 5.568 46.628 6.336C47.508 7.104 47.948 8.208 47.948 9.648V15.552H49.196V18H47.492ZM42.404 16.056C43.092 16.056 43.676 15.904 44.156 15.6C44.636 15.296 44.876 14.848 44.876 14.256V12.6H42.908C41.308 12.6 40.508 13.112 40.508 14.136V14.544C40.508 15.056 40.668 15.44 40.988 15.696C41.324 15.936 41.796 16.056 42.404 16.056ZM56.7463 18.288C55.8183 18.288 54.9863 18.136 54.2503 17.832C53.5303 17.512 52.9143 17.072 52.4023 16.512C51.9063 15.936 51.5223 15.248 51.2503 14.448C50.9783 13.632 50.8423 12.72 50.8423 11.712C50.8423 10.72 50.9703 9.824 51.2263 9.024C51.4983 8.224 51.8823 7.544 52.3783 6.984C52.8743 6.408 53.4823 5.968 54.2023 5.664C54.9223 5.344 55.7383 5.184 56.6503 5.184C57.6263 5.184 58.4743 5.352 59.1943 5.688C59.9143 6.024 60.5063 6.48 60.9703 7.056C61.4343 7.632 61.7783 8.304 62.0023 9.072C62.2423 9.824 62.3623 10.632 62.3623 11.496V12.504H54.0343V12.816C54.0343 13.728 54.2903 14.464 54.8023 15.024C55.3143 15.568 56.0743 15.84 57.0823 15.84C57.8503 15.84 58.4743 15.68 58.9543 15.36C59.4503 15.04 59.8903 14.632 60.2743 14.136L61.9303 15.984C61.4183 16.704 60.7143 17.272 59.8183 17.688C58.9383 18.088 57.9143 18.288 56.7463 18.288ZM56.6983 7.488C55.8823 7.488 55.2343 7.76 54.7543 8.304C54.2743 8.848 54.0343 9.552 54.0343 10.416V10.608H59.1703V10.392C59.1703 9.528 58.9543 8.832 58.5223 8.304C58.1063 7.76 57.4983 7.488 56.6983 7.488ZM68.1371 18C67.0811 18 66.3051 17.736 65.8091 17.208C65.3131 16.68 65.0651 15.936 65.0651 14.976V0.24H68.1371V15.552H69.7931V18H68.1371Z" fill="#F0F2F4"/>
<path d="M77.9836 1.248H85.7356C86.4236 1.248 87.0396 1.352 87.5836 1.56C88.1436 1.768 88.6156 2.056 88.9996 2.424C89.3836 2.792 89.6716 3.248 89.8636 3.792C90.0716 4.32 90.1756 4.904 90.1756 5.544C90.1756 6.184 90.0876 6.728 89.9116 7.176C89.7516 7.608 89.5276 7.968 89.2396 8.256C88.9676 8.544 88.6476 8.76 88.2796 8.904C87.9276 9.048 87.5596 9.128 87.1756 9.144V9.288C87.5436 9.288 87.9356 9.36 88.3516 9.504C88.7836 9.648 89.1756 9.88 89.5276 10.2C89.8956 10.504 90.1996 10.904 90.4396 11.4C90.6796 11.88 90.7996 12.48 90.7996 13.2C90.7996 13.872 90.6876 14.504 90.4636 15.096C90.2556 15.672 89.9596 16.176 89.5756 16.608C89.1916 17.04 88.7356 17.384 88.2076 17.64C87.6796 17.88 87.1036 18 86.4796 18H77.9836V1.248ZM81.1516 15.312H85.5676C86.1756 15.312 86.6476 15.16 86.9836 14.856C87.3196 14.536 87.4876 14.08 87.4876 13.488V12.672C87.4876 12.08 87.3196 11.624 86.9836 11.304C86.6476 10.984 86.1756 10.824 85.5676 10.824H81.1516V15.312ZM81.1516 8.232H85.0636C85.6396 8.232 86.0876 8.08 86.4076 7.776C86.7276 7.456 86.8876 7.016 86.8876 6.456V5.712C86.8876 5.152 86.7276 4.72 86.4076 4.416C86.0876 4.096 85.6396 3.936 85.0636 3.936H81.1516V8.232ZM98.7697 18.288C97.8417 18.288 97.0097 18.136 96.2737 17.832C95.5537 17.512 94.9377 17.072 94.4257 16.512C93.9297 15.936 93.5457 15.248 93.2737 14.448C93.0017 13.632 92.8657 12.72 92.8657 11.712C92.8657 10.72 92.9937 9.824 93.2497 9.024C93.5217 8.224 93.9057 7.544 94.4017 6.984C94.8977 6.408 95.5057 5.968 96.2257 5.664C96.9457 5.344 97.7617 5.184 98.6737 5.184C99.6497 5.184 100.498 5.352 101.218 5.688C101.938 6.024 102.53 6.48 102.994 7.056C103.458 7.632 103.802 8.304 104.026 9.072C104.266 9.824 104.386 10.632 104.386 11.496V12.504H96.0577V12.816C96.0577 13.728 96.3137 14.464 96.8257 15.024C97.3377 15.568 98.0977 15.84 99.1057 15.84C99.8737 15.84 100.498 15.68 100.978 15.36C101.474 15.04 101.914 14.632 102.298 14.136L103.954 15.984C103.442 16.704 102.738 17.272 101.842 17.688C100.962 18.088 99.9377 18.288 98.7697 18.288ZM98.7217 7.488C97.9057 7.488 97.2577 7.76 96.7777 8.304C96.2977 8.848 96.0577 9.552 96.0577 10.416V10.608H101.194V10.392C101.194 9.528 100.978 8.832 100.546 8.304C100.13 7.76 99.5217 7.488 98.7217 7.488ZM109.566 18L105.39 5.472H108.414L110.166 10.872L111.39 15.336H111.558L112.782 10.872L114.486 5.472H117.414L113.214 18H109.566ZM128.469 18C127.797 18 127.261 17.808 126.861 17.424C126.477 17.024 126.237 16.496 126.141 15.84H125.997C125.789 16.656 125.365 17.272 124.725 17.688C124.085 18.088 123.293 18.288 122.349 18.288C121.069 18.288 120.085 17.952 119.397 17.28C118.709 16.608 118.365 15.712 118.365 14.592C118.365 13.296 118.829 12.336 119.757 11.712C120.685 11.072 122.005 10.752 123.717 10.752H125.853V9.84C125.853 9.136 125.669 8.592 125.301 8.208C124.933 7.824 124.341 7.632 123.525 7.632C122.805 7.632 122.221 7.792 121.773 8.112C121.341 8.416 120.973 8.784 120.669 9.216L118.845 7.584C119.309 6.864 119.925 6.288 120.693 5.856C121.461 5.408 122.477 5.184 123.741 5.184C125.437 5.184 126.725 5.568 127.605 6.336C128.485 7.104 128.925 8.208 128.925 9.648V15.552H130.173V18H128.469ZM123.381 16.056C124.069 16.056 124.653 15.904 125.133 15.6C125.613 15.296 125.853 14.848 125.853 14.256V12.6H123.885C122.285 12.6 121.485 13.112 121.485 14.136V14.544C121.485 15.056 121.645 15.44 121.965 15.696C122.301 15.936 122.773 16.056 123.381 16.056Z" fill="url(#paint0_linear_516_143)"/>
<defs>
<linearGradient id="paint0_linear_516_143" x1="65" y1="-3" x2="65" y2="21" gradientUnits="userSpaceOnUse">
<stop stop-color="#E05060"/>
<stop offset="1" stop-color="#CD4352"/>
</linearGradient>
</defs>
</svg>
