<svg width="12" height="12" viewBox="0 0 12 12" fill="none" xmlns="http://www.w3.org/2000/svg">
<path d="M5.10211 0.803755L5.69669 0.193726C5.94844 -0.0645752 6.35554 -0.0645752 6.60462 0.193726L11.8112 5.53286C12.0629 5.79116 12.0629 6.20884 11.8112 6.46439L6.60462 11.8063C6.35286 12.0646 5.94577 12.0646 5.69669 11.8063L5.10211 11.1962C4.84767 10.9352 4.85303 10.5093 5.11282 10.2537L8.34014 7.09915H0.642785C0.286575 7.09915 0 6.80513 0 6.43966V5.56034C0 5.19487 0.286575 4.90085 0.642785 4.90085H8.34014L5.11282 1.74628C4.85035 1.49073 4.845 1.0648 5.10211 0.803755Z" fill="url(#paint0_linear_565_144)"/>
<defs>
<linearGradient id="paint0_linear_565_144" x1="6" y1="0" x2="6" y2="12" gradientUnits="userSpaceOnUse">
<stop stop-color="#E05060"/>
<stop offset="1" stop-color="#CD4352"/>
</linearGradient>
</defs>
</svg>
